<?xml version="1.0" encoding="utf-8"?>
<!-- Generator: Adobe Illustrator 19.0.0, SVG Export Plug-In . SVG Version: 6.00 Build 0)  -->
<svg version="1.1" id="Capa_1" xmlns="http://www.w3.org/2000/svg" xmlns:xlink="http://www.w3.org/1999/xlink" x="0px" y="0px"
	 viewBox="0 71 300 160" style="enable-background:new 0 71 300 160;" xml:space="preserve">
<style type="text/css">
	.st0{fill:#FFFFFF;}
	.st1{fill:none;stroke:#FFFFFF;stroke-miterlimit:10;}
</style>
<g id="XMLID_6_">
	<g id="XMLID_2_">
		<path id="XMLID_73_" class="st0" d="M24.5,160.9H3.8v-1.2c4.1,0,6.5-3.7,6.5-10.2v-44.9c0-6-2.3-10.1-6.5-10.1v-1.2h20.7
			c19.1,0,38.2,5.9,38.2,34C62.6,156.3,43.6,160.9,24.5,160.9z M24.5,94.5h-4.2v65.2h4.2c10.4,0,26.6-0.5,26.6-32.4
			C51.1,96.3,35.1,94.5,24.5,94.5z"/>
		<path id="XMLID_76_" class="st0" d="M135,160.9h-21.9v-1.2c5.2,0,4.2-5.5,2-10.9l-3.4-8.4H86.9c-2.6,7.7-6.8,19.6,6.5,19.2v1.2H72
			v-1.2c3.7-0.1,6.1-0.5,14.4-22.7l16-43.7h1.1c11.7,28.3,23.6,58.6,23.6,58.6c3.2,7.7,5.2,7.6,7.9,7.8V160.9z M111.4,139.2
			l-12.6-31.9l-11.7,31.9H111.4z"/>
		<path id="XMLID_79_" class="st0" d="M219.3,93.3v1.2c-13.9,0-13.6,13.8-13.6,22.8V161h-3.1l-40.8-52.7v28.6
			c0,8.5,0,22.8,12.6,22.8v1.2h-27.8v-1.2c13.9,0,13.9-14.1,13.9-22.8v-30.1l-3.9-5.1c-6.1-7.7-8.9-7.1-11.4-7.3v-1.2H163l41.5,53.6
			v-29.6c0-8.9,0.1-22.8-12.6-22.8v-1.2h27.4V93.3z"/>
		<path id="XMLID_81_" class="st0" d="M291.3,160.9h-21.9v-1.2c5.2,0,4.2-5.5,2-10.9l-3.4-8.4h-24.9c-2.6,7.7-6.8,19.6,6.5,19.2v1.2
			h-21.4v-1.2c3.7-0.1,6.1-0.5,14.4-22.7l16-43.7h1.1c11.7,28.3,23.6,58.6,23.6,58.6c3.2,7.7,5.2,7.6,7.9,7.8L291.3,160.9
			L291.3,160.9z M267.6,139.2L255,107.3l-11.6,31.9H267.6z"/>
	</g>
	<g id="XMLID_3_">
		<g id="XMLID_4_">
			<path id="XMLID_84_" class="st0" d="M71.5,198.7l-1.8,2.2c-1.3-1.4-3.2-2.3-5-2.3c-3.6,0-6.4,2.8-6.4,6.3s2.8,6.3,6.4,6.3
				c1.8,0,3.6-0.8,5-2.1l1.8,2c-1.8,1.8-4.4,2.9-6.9,2.9c-5.3,0-9.3-4-9.3-9.1s4.1-9,9.4-9C67.3,196,69.8,197,71.5,198.7z"/>
			<path id="XMLID_86_" class="st0" d="M82.2,209.9l-1.7,4h-3.2l7.9-17.9h3.1l7.8,17.9h-3.2l-1.7-4H82.2z M86.7,199.3l-3.4,8h6.8
				L86.7,199.3z"/>
			<path id="XMLID_89_" class="st0" d="M106.7,198.8v5.2h8.2v2.7h-8.2v7.4h-3V196h12v2.7h-9V198.8z"/>
			<path id="XMLID_91_" class="st0" d="M126.6,198.8v4.8h8.8v2.7h-8.8v4.9h10.1v2.7h-13.1V196h12.8v2.7h-9.8V198.8z"/>
			<path id="XMLID_93_" class="st0" d="M152,198.8V214h-3v-15.2h-5.7V196h14.4v2.7H152V198.8z"/>
			<path id="XMLID_95_" class="st0" d="M168.5,198.8v4.8h8.8v2.7h-8.8v4.9h10.1v2.7h-13.1V196h12.8v2.7h-9.8V198.8z"/>
			<path id="XMLID_97_" class="st0" d="M195.5,208.6c-0.3,0-0.5,0-0.8,0h-4.3v5.4h-3v-18h7.3c4.6,0,7.2,2.2,7.2,6.1
				c0,2.9-1.3,4.9-3.7,5.8l4,6h-3.4L195.5,208.6z M194.7,205.9c2.8,0,4.4-1.2,4.4-3.6c0-2.4-1.6-3.5-4.4-3.5h-4.3v7.1H194.7z"/>
			<path id="XMLID_100_" class="st0" d="M211,214v-18h3v18H211z"/>
			<path id="XMLID_102_" class="st0" d="M226.4,209.9l-1.7,4h-3.2l7.9-17.9h3.1l7.8,17.9h-3.2l-1.7-4H226.4z M230.9,199.3l-3.4,8
				h6.8L230.9,199.3z"/>
		</g>
		<line id="XMLID_1_" class="st1" x1="42.3" y1="186.5" x2="257.7" y2="186.5"/>
		<line id="XMLID_5_" class="st1" x1="42.3" y1="222.9" x2="257.7" y2="222.9"/>
	</g>
</g>
</svg>
